<svg xmlns="http://www.w3.org/2000/svg" xmlns:xlink="http://www.w3.org/1999/xlink" version="1.1" width="256" height="256" viewBox="0 0 256 256" xml:space="preserve">

<defs>
</defs>
<g style="stroke: none; stroke-width: 0; stroke-dasharray: none; stroke-linecap: butt; stroke-linejoin: miter; stroke-miterlimit: 10; fill: none; fill-rule: nonzero; opacity: 1;" transform="translate(1.4065934065934016 1.4065934065934016) scale(2.81 2.81)" >
	<path d="M 64.045 51.118 h -3.232 V 19.045 c 0 -8.719 -7.094 -15.812 -15.813 -15.812 s -15.812 7.093 -15.812 15.812 v 32.073 h -3.233 V 19.045 C 25.955 8.543 34.499 0 45 0 c 10.502 0 19.045 8.543 19.045 19.045 V 51.118 z" style="stroke: none; stroke-width: 1; stroke-dasharray: none; stroke-linecap: butt; stroke-linejoin: miter; stroke-miterlimit: 10; fill: rgb(96,96,96); fill-rule: nonzero; opacity: 1;" transform=" matrix(1 0 0 1 0 0) " stroke-linecap="round" />
	<path d="M 76.558 30.319 C 69.321 22.143 55.614 21.13 45 31.569 c -10.614 -10.439 -24.321 -9.425 -31.558 -1.249 c -7.698 8.697 -4.465 24.928 5.67 37.901 C 24.249 74.796 36.94 85.504 45 90 c 8.06 -4.496 20.751 -15.204 25.888 -21.78 C 81.022 55.248 84.256 39.017 76.558 30.319 z M 48.911 59.077 v 6.33 c 0 2.151 -1.76 3.911 -3.911 3.911 s -3.911 -1.76 -3.911 -3.911 v -6.33 c -2.883 -1.439 -4.867 -4.41 -4.867 -7.851 c 0 -4.848 3.93 -8.779 8.779 -8.779 s 8.779 3.93 8.779 8.779 C 53.779 54.667 51.794 57.637 48.911 59.077 z" style="stroke: none; stroke-width: 1; stroke-dasharray: none; stroke-linecap: butt; stroke-linejoin: miter; stroke-miterlimit: 10; fill: rgb(248,48,95); fill-rule: nonzero; opacity: 1;" transform=" matrix(1 0 0 1 0 0) " stroke-linecap="round" />
</g>
</svg>