<svg xmlns="http://www.w3.org/2000/svg" xmlns:xlink="http://www.w3.org/1999/xlink" version="1.1" width="256" height="256" viewBox="0 0 256 256" xml:space="preserve">

<defs>
</defs>
<g style="stroke: none; stroke-width: 0; stroke-dasharray: none; stroke-linecap: butt; stroke-linejoin: miter; stroke-miterlimit: 10; fill: none; fill-rule: nonzero; opacity: 1;" transform="translate(1.4065934065934016 1.4065934065934016) scale(2.81 2.81)" >
	<path d="M 45 1.611 L 2.732 28.234 v 57.175 c 0 1.645 1.334 2.979 2.979 2.979 h 78.577 c 1.645 0 2.979 -1.334 2.979 -2.979 V 28.234 L 45 1.611 z" style="stroke: none; stroke-width: 1; stroke-dasharray: none; stroke-linecap: butt; stroke-linejoin: miter; stroke-miterlimit: 10; fill: rgb(249,249,249); fill-rule: nonzero; opacity: 1;" transform=" matrix(1 0 0 1 0 0) " stroke-linecap="round" />
	<path d="M 52.041 58.431 c -0.469 0 -0.934 -0.204 -1.253 -0.596 c -0.56 -0.691 -0.455 -1.706 0.236 -2.268 l 35.227 -28.585 c 0.694 -0.56 1.707 -0.455 2.268 0.236 c 0.56 0.691 0.455 1.706 -0.236 2.267 L 53.055 58.071 C 52.756 58.313 52.397 58.431 52.041 58.431 z" style="stroke: none; stroke-width: 1; stroke-dasharray: none; stroke-linecap: butt; stroke-linejoin: miter; stroke-miterlimit: 10; fill: rgb(96,96,96); fill-rule: nonzero; opacity: 1;" transform=" matrix(1 0 0 1 0 0) " stroke-linecap="round" />
	<path d="M 37.958 58.431 c -0.357 0 -0.716 -0.118 -1.015 -0.36 L 1.717 29.485 c -0.691 -0.561 -0.797 -1.576 -0.236 -2.267 c 0.56 -0.692 1.575 -0.797 2.267 -0.236 l 35.227 28.585 c 0.691 0.561 0.797 1.576 0.236 2.268 C 38.892 58.227 38.427 58.431 37.958 58.431 z" style="stroke: none; stroke-width: 1; stroke-dasharray: none; stroke-linecap: butt; stroke-linejoin: miter; stroke-miterlimit: 10; fill: rgb(96,96,96); fill-rule: nonzero; opacity: 1;" transform=" matrix(1 0 0 1 0 0) " stroke-linecap="round" />
	<path d="M 86.191 89.588 L 45 52.674 L 3.808 89.588 l -2.151 -2.4 L 43.924 49.31 c 0.612 -0.549 1.539 -0.549 2.151 0 l 42.267 37.878 L 86.191 89.588 z" style="stroke: none; stroke-width: 1; stroke-dasharray: none; stroke-linecap: butt; stroke-linejoin: miter; stroke-miterlimit: 10; fill: rgb(96,96,96); fill-rule: nonzero; opacity: 1;" transform=" matrix(1 0 0 1 0 0) " stroke-linecap="round" />
	<path d="M 84.287 90 H 5.711 c -2.531 0 -4.59 -2.06 -4.59 -4.592 V 28.234 c 0 -0.554 0.284 -1.068 0.753 -1.364 L 44.141 0.248 c 0.525 -0.33 1.193 -0.33 1.718 0 L 88.126 26.87 c 0.468 0.295 0.753 0.81 0.753 1.364 v 57.174 C 88.879 87.94 86.819 90 84.287 90 z M 4.344 29.123 v 56.285 c 0 0.754 0.613 1.367 1.367 1.367 h 78.576 c 0.754 0 1.367 -0.613 1.367 -1.367 V 29.123 L 45 3.516 L 4.344 29.123 z" style="stroke: none; stroke-width: 1; stroke-dasharray: none; stroke-linecap: butt; stroke-linejoin: miter; stroke-miterlimit: 10; fill: rgb(96,96,96); fill-rule: nonzero; opacity: 1;" transform=" matrix(1 0 0 1 0 0) " stroke-linecap="round" />
	<path d="M 25.678 11.013 v 34.706 c 0 0.603 0.272 1.174 0.74 1.554 l 10.216 8.29 c 0.763 0.619 1.864 0.592 2.596 -0.064 l 4.434 -3.974 c 0.76 -0.681 1.91 -0.681 2.67 0 l 4.434 3.974 c 0.732 0.656 1.832 0.683 2.596 0.064 l 10.216 -8.29 c 0.468 -0.38 0.74 -0.951 0.74 -1.553 V 11.013 c 0 -1.171 -0.949 -2.12 -2.12 -2.12 H 27.798 C 26.627 8.893 25.678 9.842 25.678 11.013 z M 52.254 29.555 c -1.218 1.559 -3.95 3.946 -6.13 5.407 c -0.683 0.458 -1.565 0.458 -2.249 0 c -2.18 -1.461 -4.913 -3.849 -6.13 -5.407 c -2.84 -3.635 -3.746 -8.184 -1.589 -10.621 c 1.775 -2.005 4.937 -2.473 7.693 -0.599 c 0.705 0.479 1.597 0.479 2.302 0 c 2.756 -1.874 5.918 -1.406 7.693 0.599 C 56.001 21.371 55.094 25.92 52.254 29.555 z" style="stroke: none; stroke-width: 1; stroke-dasharray: none; stroke-linecap: butt; stroke-linejoin: miter; stroke-miterlimit: 10; fill: rgb(248,48,95); fill-rule: nonzero; opacity: 1;" transform=" matrix(1 0 0 1 0 0) " stroke-linecap="round" />
	<path d="M 37.896 57.686 c -0.817 0 -1.635 -0.273 -2.315 -0.825 l -10.216 -8.29 c -0.863 -0.701 -1.359 -1.74 -1.359 -2.851 V 11.013 c 0 -2.09 1.701 -3.791 3.792 -3.791 h 34.403 c 2.091 0 3.791 1.701 3.791 3.791 v 34.706 c 0 1.112 -0.495 2.151 -1.358 2.851 l -10.216 8.29 c -1.409 1.141 -3.412 1.093 -4.765 -0.117 L 45.22 52.77 c -0.126 -0.114 -0.315 -0.113 -0.44 0 l -4.435 3.974 C 39.646 57.371 38.771 57.686 37.896 57.686 z M 27.798 10.565 c -0.247 0 -0.448 0.201 -0.448 0.448 v 34.706 c 0 0.1 0.044 0.193 0.122 0.256 l 10.215 8.289 c 0.127 0.102 0.307 0.1 0.427 -0.011 l 4.435 -3.974 c 1.398 -1.252 3.504 -1.251 4.902 0 l 4.435 3.975 c 0.12 0.109 0.301 0.111 0.428 0.01 l 10.215 -8.29 c 0.077 -0.063 0.121 -0.156 0.121 -0.255 V 11.013 c 0 -0.247 -0.2 -0.448 -0.448 -0.448 H 27.798 z M 45 36.979 c -0.715 0 -1.431 -0.209 -2.055 -0.627 c -2.407 -1.613 -5.209 -4.093 -6.517 -5.767 c -3.538 -4.528 -4.164 -9.774 -1.523 -12.758 c 2.431 -2.747 6.588 -3.114 9.884 -0.873 c 0.137 0.094 0.283 0.094 0.422 0 c 3.297 -2.241 7.453 -1.873 9.885 0.873 c 2.641 2.984 2.014 8.23 -1.524 12.759 c -1.309 1.675 -4.11 4.154 -6.517 5.767 C 46.431 36.77 45.715 36.979 45 36.979 z M 40.175 18.824 c -1.062 0 -2.052 0.41 -2.767 1.218 c -1.482 1.674 -0.755 5.4 1.655 8.484 c 1.083 1.387 3.66 3.652 5.744 5.048 c 0.118 0.08 0.267 0.081 0.386 0 c 2.084 -1.396 4.661 -3.661 5.744 -5.048 v 0 c 2.41 -3.083 3.137 -6.81 1.655 -8.484 c -1.321 -1.493 -3.583 -1.627 -5.502 -0.324 c -1.269 0.863 -2.912 0.863 -4.181 0 C 42.029 19.119 41.076 18.824 40.175 18.824 z" style="stroke: none; stroke-width: 1; stroke-dasharray: none; stroke-linecap: butt; stroke-linejoin: miter; stroke-miterlimit: 10; fill: rgb(96,96,96); fill-rule: nonzero; opacity: 1;" transform=" matrix(1 0 0 1 0 0) " stroke-linecap="round" />
</g>
</svg>